HIERARCHY
ROOT Hips
{
 OFFSET 0.000000 0.000000 0.000000
 CHANNELS 6 Xposition Yposition Zposition Yrotation Xrotation Zrotation
 JOINT Chest
 {
  OFFSET 0.000000 9.585900 0.002600
  CHANNELS 3 Yrotation Xrotation Zrotation
  JOINT Chest2
  {
   OFFSET 0.000000 9.601200 -0.005300
   CHANNELS 3 Yrotation Xrotation Zrotation
   JOINT Chest3
   {
    OFFSET 0.000000 9.561800 0.000000
    CHANNELS 3 Yrotation Xrotation Zrotation
    JOINT Chest4
    {
     OFFSET 0.000000 9.552100 0.000000
     CHANNELS 3 Yrotation Xrotation Zrotation
     JOINT Neck
     {
      OFFSET 0.000000 14.453000 0.000000
      CHANNELS 3 Yrotation Xrotation Zrotation
      JOINT Head
      {
       OFFSET 0.000000 8.936500 -0.011300
       CHANNELS 3 Yrotation Xrotation Zrotation
       End Site
       {
        OFFSET 0.000000 17.073600 -0.006000
       }
      }
     }
     JOINT RightCollar
     {
      OFFSET -2.921100 9.558500 0.000000
      CHANNELS 3 Yrotation Xrotation Zrotation
      JOINT RightShoulder
      {
       OFFSET -13.519700 0.000000 0.000000
       CHANNELS 3 Yrotation Xrotation Zrotation
       JOINT RightElbow
       {
        OFFSET 0.000000 -29.696600 0.000000
        CHANNELS 3 Yrotation Xrotation Zrotation
        JOINT RightWrist
        {
         OFFSET 0.000000 -24.004700 0.000000
         CHANNELS 3 Yrotation Xrotation Zrotation
         End Site
         {
          OFFSET 0.000000 -17.728500 0.000000
         }
        }
       }
      }
     }
     JOINT LeftCollar
     {
      OFFSET 2.921100 9.558500 0.000000
      CHANNELS 3 Yrotation Xrotation Zrotation
      JOINT LeftShoulder
      {
       OFFSET 13.519700 0.000000 0.000000
       CHANNELS 3 Yrotation Xrotation Zrotation
       JOINT LeftElbow
       {
        OFFSET 0.000000 -29.696600 0.000000
        CHANNELS 3 Yrotation Xrotation Zrotation
        JOINT LeftWrist
        {
         OFFSET 0.000000 -24.004700 0.000000
         CHANNELS 3 Yrotation Xrotation Zrotation
         End Site
         {
          OFFSET 0.000000 -17.728500 0.000000
         }
        }
       }
      }
     }
    }
   }
  }
 }
 JOINT RightHip
 {
  OFFSET -7.771700 -0.012900 -0.001300
  CHANNELS 3 Yrotation Xrotation Zrotation
  JOINT RightKnee
  {
   OFFSET 0.000000 -40.869800 0.001200
   CHANNELS 3 Yrotation Xrotation Zrotation
   JOINT RightAnkle
   {
    OFFSET 0.000000 -39.717900 0.002100
    CHANNELS 3 Yrotation Xrotation Zrotation
    JOINT RightToe
    {
     OFFSET 0.000000 -4.965400 11.033500
     CHANNELS 3 Yrotation Xrotation Zrotation
     End Site
     {
      OFFSET 0.000000 -1.423100 5.872300
     }
    }
   }
  }
 }
 JOINT LeftHip
 {
  OFFSET 7.771700 -0.012900 -0.001300
  CHANNELS 3 Yrotation Xrotation Zrotation
  JOINT LeftKnee
  {
   OFFSET 0.000000 -40.869800 0.001200
   CHANNELS 3 Yrotation Xrotation Zrotation
   JOINT LeftAnkle
   {
    OFFSET 0.000000 -39.717900 0.002100
    CHANNELS 3 Yrotation Xrotation Zrotation
    JOINT LeftToe
    {
     OFFSET 0.000000 -4.965400 11.033500
     CHANNELS 3 Yrotation Xrotation Zrotation
     End Site
     {
      OFFSET 0.000000 -1.423100 5.872300
     }
    }
   }
  }
 }
}
MOTION
Frames: 12
Frame Time: 0.008333
-45.582444 53.510687 45.287727 -177.046826 -32.284769 -11.202199 -0.097004 13.784489 5.610753 -0.098637 7.971471 2.192035 -0.089261 9.912776 2.743896 -0.103653 7.954851 2.192158 3.720153 19.053906 -0.486314 4.072885 -5.560419 -1.388419 0.862135 2.696514 -2.758486 -21.764885 -2.914048 4.568774 -19.114847 -79.337024 35.243924 11.648868 5.474100 -5.304775 -8.997020 2.765463 -3.341900 8.348606 -2.761019 -0.893482 -61.426692 -77.943287 64.020829 14.538584 -10.173854 -16.209882 -16.244823 -33.446277 3.318324 34.259078 85.288230 30.525149 1.164943 -17.434510 3.083750 -0.482443 0.819075 -0.227688 -15.080125 -46.012675 13.903418 169.948853 79.798850 165.019706 -1.059571 -15.256567 2.247703 -0.955389 -2.533532 -0.419449
-45.575061 53.612517 45.276713 -177.032238 -32.227720 -11.210612 -0.096805 13.800015 5.626119 -0.099570 7.960354 2.188333 -0.093921 9.884966 2.738051 -0.101834 7.955822 2.190366 3.712812 19.026258 -0.535344 4.068262 -5.604443 -1.375504 0.850724 2.692353 -2.798429 -21.806003 -2.850531 4.487675 -20.338909 -79.598277 36.574563 11.822288 5.807125 -4.812531 -8.982748 2.807518 -3.332799 8.374412 -2.787607 -0.845114 -61.965464 -78.274138 64.494701 14.638311 -9.940798 -16.632351 -16.309497 -33.493694 3.323331 34.475934 85.298163 30.744006 1.257705 -17.458720 3.037089 -0.556103 0.810793 -0.230377 -15.079101 -46.013346 13.939835 169.982512 79.853304 165.033031 -1.079552 -15.229744 2.269397 -0.956900 -2.565234 -0.408323
-45.574067 53.700319 45.265270 -177.016952 -32.183956 -11.197114 -0.114576 13.785640 5.610698 -0.094068 7.991629 2.190847 -0.084714 9.892531 2.734272 -0.095385 8.014138 2.187144 3.688910 18.909685 -0.576183 4.063771 -5.689061 -1.437310 0.833866 2.600355 -2.848078 -21.850059 -2.794779 4.412018 -21.892064 -79.816154 38.232787 11.983808 6.102538 -4.309991 -8.995517 2.702508 -3.304910 8.428705 -2.757283 -0.797463 -62.508111 -78.631983 64.965997 14.735576 -9.670878 -17.042321 -16.378052 -33.547089 3.314171 34.877342 85.322426 31.136232 1.269785 -17.482170 3.011487 -0.560166 0.799060 -0.239472 -15.057464 -46.018104 13.941285 170.008376 79.894953 165.036511 -1.122797 -15.209786 2.302946 -0.935988 -2.590815 -0.403854
-45.575642 53.771449 45.261569 -177.012551 -32.099278 -11.174764 -0.133093 13.728257 5.592791 -0.092957 8.009495 2.190795 -0.077119 9.963300 2.734949 -0.100083 7.990199 2.183897 3.676665 18.827898 -0.620920 4.059639 -5.774086 -1.502091 0.837996 2.548463 -2.912861 -21.908080 -2.749308 4.340061 -23.817185 -79.976630 40.275232 12.131124 6.378359 -3.804681 -8.989284 2.661230 -3.281942 8.478801 -2.765124 -0.770698 -63.001134 -79.008933 65.390010 14.810784 -9.353635 -17.460086 -16.420741 -33.648623 3.321203 35.161994 85.352906 31.411626 1.264804 -17.532804 3.004097 -0.552674 0.820377 -0.242701 -15.033730 -46.063341 13.966843 170.110503 79.945322 165.111245 -1.207333 -15.255117 2.344965 -0.888159 -2.543234 -0.385184
-45.575278 53.835387 45.254780 -176.996409 -32.049904 -11.184796 -0.131683 13.766420 5.617263 -0.108369 7.938255 2.175404 -0.074201 10.030765 2.740097 -0.104047 7.981756 2.181390 3.666300 18.761912 -0.667894 4.058720 -5.847168 -1.549671 0.845823 2.489697 -2.941116 -21.970694 -2.704624 4.214309 -26.132970 -80.063673 42.720986 12.261544 6.641907 -3.302959 -8.978298 2.636788 -3.263974 8.540467 -2.773185 -0.746139 -63.510716 -79.409095 65.824623 14.845605 -8.989198 -17.895007 -16.473488 -33.705596 3.345439 35.472369 85.381643 31.703360 1.293753 -17.586623 2.996020 -0.582050 0.845299 -0.244004 -15.058196 -46.091235 14.005063 170.095463 79.955665 165.066629 -1.212756 -15.259994 2.371671 -0.916862 -2.544503 -0.381882
-45.577048 53.890399 45.248748 -176.976801 -32.006799 -11.194821 -0.152835 13.738647 5.620420 -0.102755 7.980923 2.181980 -0.080756 10.008353 2.735496 -0.112178 8.023660 2.182939 3.662683 18.693463 -0.707462 4.059232 -5.920023 -1.606705 0.864291 2.453907 -3.002027 -22.045507 -2.673794 4.119282 -28.864799 -80.063296 45.587837 12.375278 6.898750 -2.796808 -8.965365 2.581717 -3.254037 8.622460 -2.753750 -0.713975 -64.109966 -79.813265 66.344622 14.831316 -8.589716 -18.341206 -16.515439 -33.758281 3.364332 35.748465 85.414099 31.969914 1.291446 -17.653657 2.993697 -0.589698 0.884274 -0.242972 -15.089845 -46.115428 14.037960 170.133371 79.965522 165.081642 -1.236049 -15.283453 2.392834 -0.898537 -2.529426 -0.381390
-45.583777 53.936507 45.244754 -176.934254 -31.954628 -11.194897 -0.184918 13.731146 5.618284 -0.101810 8.039579 2.193291 -0.099369 9.942710 2.713564 -0.119602 8.047119 2.183863 3.666259 18.640368 -0.726662 4.060361 -5.988976 -1.680133 0.883335 2.440033 -3.058463 -22.119040 -2.651176 4.017647 -31.996158 -79.960304 48.849062 12.476307 7.156726 -2.269874 -8.952243 2.544796 -3.246451 8.723858 -2.738386 -0.686306 -64.860116 -80.199150 67.013922 14.771542 -8.178749 -18.775082 -16.564396 -33.823708 3.359353 36.050424 85.448964 32.261285 1.268367 -17.736774 2.978147 -0.590810 0.934846 -0.225041 -15.131793 -46.157971 14.055652 170.151679 79.961792 165.057443 -1.279076 -15.325413 2.430397 -0.879773 -2.497747 -0.379314
-45.587624 53.980126 45.237124 -176.895329 -31.939606 -11.217106 -0.183137 13.790229 5.664800 -0.126454 8.015194 2.173366 -0.110272 10.019210 2.720648 -0.119096 7.942432 2.163246 3.655401 18.626540 -0.764546 4.072924 -6.061266 -1.732745 0.895600 2.457914 -3.095748 -22.184546 -2.637674 3.899682 -35.430722 -79.740473 52.403408 12.569008 7.425208 -1.712549 -8.949664 2.554664 -3.233564 8.847881 -2.738225 -0.672398 -65.825435 -80.546831 67.900391 14.687212 -7.777670 -19.181072 -16.636827 -33.837901 3.367135 36.494338 85.466370 32.680010 1.292049 -17.837425 2.970551 -0.609271 1.000286 -0.237067 -15.184512 -46.160266 14.092449 170.176848 79.955611 165.041883 -1.291087 -15.355525 2.459500 -0.874004 -2.484698 -0.384829
-45.594415 54.019000 45.229290 -176.847001 -31.930798 -11.227832 -0.210229 13.821643 5.675030 -0.139236 8.004131 2.160942 -0.111871 10.056189 2.728440 -0.130741 7.956343 2.156870 3.654210 18.560306 -0.813619 4.079000 -6.137431 -1.786375 0.911270 2.402911 -3.123313 -22.241203 -2.624577 3.760318 -39.039896 -79.398649 56.133506 12.659882 7.717702 -1.131168 -8.944662 2.503832 -3.216001 8.988402 -2.738536 -0.665845 -67.075103 -80.843568 69.076192 14.610737 -7.397127 -19.563163 -16.680618 -33.857743 3.358168 36.753855 85.509703 32.916944 1.303533 -17.926198 2.982673 -0.628811 1.047923 -0.246827 -15.226822 -46.156781 14.095785 170.233441 79.955872 165.069247 -1.314440 -15.402642 2.465973 -0.860709 -2.443462 -0.370185
-45.599528 54.054134 45.222573 -176.811027 -31.922517 -11.239394 -0.228973 13.843267 5.688354 -0.148253 8.001110 2.152938 -0.110539 10.094124 2.738735 -0.139129 8.038159 2.170901 3.641651 18.422823 -0.889295 4.078365 -6.214429 -1.844508 0.923378 2.279252 -3.172957 -22.305901 -2.615452 3.622276 -42.725934 -78.929056 59.959202 12.767361 8.045719 -0.541024 -8.938890 2.396290 -3.187365 9.121028 -2.754037 -0.688257 -68.572117 -81.100169 70.510518 14.562473 -7.034493 -19.943182 -16.709464 -33.877141 3.358418 37.007531 85.549480 33.152533 1.311864 -18.015885 2.991397 -0.651244 1.099584 -0.251297 -15.266675 -46.157038 14.121637 170.301496 79.950786 165.095837 -1.333893 -15.443868 2.491661 -0.856064 -2.414838 -0.367078
-45.602540 54.087267 45.215540 -176.786085 -31.923954 -11.252501 -0.244392 13.856716 5.695650 -0.124450 8.083054 2.192547 -0.132593 10.063701 2.717770 -0.144416 8.050646 2.171406 3.625614 18.352934 -0.946402 4.072271 -6.299460 -1.909824 0.934807 2.240932 -3.220349 -22.387338 -2.617647 3.499885 -46.430011 -78.318508 63.830013 12.906612 8.415029 0.048000 -8.940232 2.328980 -3.185300 9.183782 -2.754521 -0.689920 -70.127189 -81.345916 72.074553 14.546558 -6.673004 -20.360143 -16.719782 -33.888577 3.366680 37.257064 85.589949 33.389873 1.304262 -18.097471 3.001614 -0.638688 1.144700 -0.252057 -15.298801 -46.155730 14.163706 170.295226 79.928173 165.037394 -1.352771 -15.466152 2.540787 -0.869133 -2.416524 -0.380166
-45.605102 54.117027 45.210764 -176.755918 -31.912348 -11.263365 -0.253740 13.882559 5.715856 -0.129817 8.081678 2.189167 -0.133758 10.091763 2.725570 -0.149399 8.065900 2.173181 3.604049 18.275239 -1.012446 4.062873 -6.387915 -1.975644 0.945663 2.196584 -3.268606 -22.468521 -2.616935 3.367229 -50.077389 -77.566169 67.665467 13.063447 8.825285 0.638179 -8.944216 2.257325 -3.185924 9.243894 -2.756351 -0.693005 -71.717124 -81.634291 73.671772 14.557603 -6.298447 -20.844766 -16.726346 -33.915824 3.374646 37.467829 85.634711 33.595297 1.279804 -18.170266 3.015670 -0.641542 1.174703 -0.258284 -15.327549 -46.165541 14.186382 170.290684 79.915560 165.001347 -1.366182 -15.507473 2.562023 -0.890209 -2.383659 -0.374440
